<svg width="28" height="28" viewBox="0 0 28 28" fill="none" xmlns="http://www.w3.org/2000/svg">
<path d="M19.3125 3.3125C19.3125 2.60417 19.5625 2 20.0625 1.5C20.6042 0.958333 21.25 0.6875 22 0.6875C22.75 0.6875 23.375 0.958333 23.875 1.5C24.4167 2 24.6875 2.60417 24.6875 3.3125C24.6875 4.0625 24.4167 4.70833 23.875 5.25C23.375 5.75 22.75 6 22 6C21.25 6 20.6042 5.75 20.0625 5.25C19.5625 4.70833 19.3125 4.0625 19.3125 3.3125ZM24.6875 27.3125V19.3125H28L24.625 9.1875C24.4167 8.60417 24.0833 8.14583 23.625 7.8125C23.1667 7.47917 22.6458 7.3125 22.0625 7.3125H21.9375C21.3542 7.3125 20.8333 7.47917 20.375 7.8125C19.9167 8.14583 19.5833 8.60417 19.375 9.1875L18.25 12.625C18.9583 13 19.5417 13.5625 20 14.3125C20.4583 15.0208 20.6875 15.8125 20.6875 16.6875V27.3125H24.6875ZM14.6875 13.3125C15.2292 13.3125 15.6875 13.125 16.0625 12.75C16.4792 12.375 16.6875 11.8958 16.6875 11.3125C16.6875 10.7708 16.4792 10.3125 16.0625 9.9375C15.6875 9.52083 15.2292 9.3125 14.6875 9.3125C14.1042 9.3125 13.625 9.52083 13.25 9.9375C12.875 10.3125 12.6875 10.7708 12.6875 11.3125C12.6875 11.8958 12.875 12.375 13.25 12.75C13.625 13.125 14.1042 13.3125 14.6875 13.3125ZM5.3125 6C6.0625 6 6.6875 5.75 7.1875 5.25C7.72917 4.70833 8 4.0625 8 3.3125C8 2.60417 7.72917 2 7.1875 1.5C6.6875 0.958333 6.0625 0.6875 5.3125 0.6875C4.60417 0.6875 3.97917 0.958333 3.4375 1.5C2.9375 2 2.6875 2.60417 2.6875 3.3125C2.6875 4.0625 2.9375 4.70833 3.4375 5.25C3.97917 5.75 4.60417 6 5.3125 6ZM8 27.3125V18H10V10C10 9.25 9.72917 8.625 9.1875 8.125C8.6875 7.58333 8.0625 7.3125 7.3125 7.3125H3.3125C2.60417 7.3125 1.97917 7.58333 1.4375 8.125C0.9375 8.625 0.6875 9.25 0.6875 10V18H2.6875V27.3125H8ZM16.6875 27.3125V22H18V16.6875C18 16.1458 17.7917 15.6875 17.375 15.3125C17 14.8958 16.5417 14.6875 16 14.6875H13.3125C12.7708 14.6875 12.2917 14.8958 11.875 15.3125C11.5 15.6875 11.3125 16.1458 11.3125 16.6875V22H12.6875V27.3125H16.6875Z" fill="#65665C"/>
</svg>
