<svg width="30" height="22" viewBox="0 0 30 22" fill="none" xmlns="http://www.w3.org/2000/svg">
<path d="M24.3125 13.6875V3C24.3125 2.25 24.0417 1.625 23.5 1.125C23 0.583333 22.3958 0.3125 21.6875 0.3125H3C2.25 0.3125 1.60417 0.583333 1.0625 1.125C0.5625 1.625 0.3125 2.25 0.3125 3V13.6875C0.3125 14.3958 0.5625 15.0208 1.0625 15.5625C1.60417 16.0625 2.25 16.3125 3 16.3125H21.6875C22.3958 16.3125 23 16.0625 23.5 15.5625C24.0417 15.0208 24.3125 14.3958 24.3125 13.6875ZM12.3125 12.3125C11.6042 12.3125 10.9375 12.1458 10.3125 11.8125C9.72917 11.4375 9.25 10.9583 8.875 10.375C8.5 9.75 8.3125 9.0625 8.3125 8.3125C8.3125 7.60417 8.5 6.95833 8.875 6.375C9.25 5.75 9.72917 5.25 10.3125 4.875C10.9375 4.5 11.6042 4.3125 12.3125 4.3125C13.0625 4.3125 13.7292 4.5 14.3125 4.875C14.9375 5.25 15.4167 5.75 15.75 6.375C16.125 6.95833 16.3125 7.60417 16.3125 8.3125C16.3125 9.0625 16.125 9.75 15.75 10.375C15.4167 10.9583 14.9375 11.4375 14.3125 11.8125C13.7292 12.1458 13.0625 12.3125 12.3125 12.3125ZM29.6875 4.3125V19C29.6875 19.75 29.4167 20.3958 28.875 20.9375C28.375 21.4375 27.75 21.6875 27 21.6875H4.3125V19H27V4.3125H29.6875Z" fill="#CF6F49"/>
</svg>
