<svg width="22" height="28" viewBox="0 0 22 28" fill="none" xmlns="http://www.w3.org/2000/svg">
<path d="M12.3125 10H19.6875L12.3125 2.6875V10ZM16.3125 16.6875V14H5.6875V16.6875H16.3125ZM16.3125 22V19.3125H5.6875V22H16.3125ZM13.6875 0.6875L21.6875 8.6875V24.6875C21.6875 25.3958 21.4167 26.0208 20.875 26.5625C20.3333 27.0625 19.7083 27.3125 19 27.3125H3C2.29167 27.3125 1.66667 27.0625 1.125 26.5625C0.583333 26.0208 0.3125 25.3958 0.3125 24.6875L0.375 3.3125C0.375 2.60417 0.625 2 1.125 1.5C1.66667 0.958333 2.29167 0.6875 3 0.6875H13.6875Z" fill="#CF6F49"/>
</svg>
