<svg width="30" height="16" viewBox="0 0 30 16" fill="none" xmlns="http://www.w3.org/2000/svg">
<path d="M27 5.3125H15.875C15.5 4.27083 14.9375 3.35417 14.1875 2.5625C13.4792 1.77083 12.6042 1.14583 11.5625 0.6875C10.5625 0.229167 9.47917 0 8.3125 0C6.85417 0 5.52083 0.375 4.3125 1.125C3.10417 1.83333 2.125 2.79167 1.375 4C0.666667 5.20833 0.3125 6.54167 0.3125 8C0.3125 9.45833 0.666667 10.7917 1.375 12C2.125 13.2083 3.10417 14.1875 4.3125 14.9375C5.52083 15.6458 6.85417 16 8.3125 16C9.47917 16 10.5625 15.7708 11.5625 15.3125C12.6042 14.8542 13.4792 14.2292 14.1875 13.4375C14.9375 12.6458 15.5 11.7292 15.875 10.6875H16.3125L19 13.3125L21.6875 10.6875L24.3125 13.3125L29.6875 7.9375L27 5.3125ZM8.3125 12C7.60417 12 6.9375 11.8333 6.3125 11.5C5.72917 11.125 5.25 10.6458 4.875 10.0625C4.5 9.4375 4.3125 8.75 4.3125 8C4.3125 7.25 4.5 6.58333 4.875 6C5.25 5.375 5.72917 4.89583 6.3125 4.5625C6.9375 4.1875 7.60417 4 8.3125 4C9.0625 4 9.72917 4.1875 10.3125 4.5625C10.9375 4.89583 11.4167 5.375 11.75 6C12.125 6.58333 12.3125 7.25 12.3125 8C12.3125 8.75 12.125 9.4375 11.75 10.0625C11.4167 10.6458 10.9375 11.125 10.3125 11.5C9.72917 11.8333 9.0625 12 8.3125 12Z" fill="#CF6F49"/>
</svg>
